<?xml version="1.0" encoding="UTF-8" standalone="no"?>
<svg
   xmlns:dc="http://purl.org/dc/elements/1.1/"
   xmlns:cc="http://creativecommons.org/ns#"
   xmlns:rdf="http://www.w3.org/1999/02/22-rdf-syntax-ns#"
   xmlns:svg="http://www.w3.org/2000/svg"
   xmlns="http://www.w3.org/2000/svg"
   xmlns:sodipodi="http://sodipodi.sourceforge.net/DTD/sodipodi-0.dtd"
   xmlns:inkscape="http://www.inkscape.org/namespaces/inkscape"
   version="1.1"
   id="svg869"
   xml:space="preserve"
   width="404.06866"
   height="338.99335"
   viewBox="0 0 404.06867 338.99335"
   sodipodi:docname="diversity_rels.svg"
   inkscape:version="1.0.1 (3bc2e813f5, 2020-09-07)"><metadata
     id="metadata875"><rdf:RDF><cc:Work
         rdf:about=""><dc:format>image/svg+xml</dc:format><dc:type
           rdf:resource="http://purl.org/dc/dcmitype/StillImage" /><dc:title></dc:title></cc:Work></rdf:RDF></metadata><defs
     id="defs873" /><sodipodi:namedview
     pagecolor="#ffffff"
     bordercolor="#666666"
     borderopacity="1"
     objecttolerance="10"
     gridtolerance="10"
     guidetolerance="10"
     inkscape:pageopacity="0"
     inkscape:pageshadow="2"
     inkscape:window-width="1918"
     inkscape:window-height="1176"
     id="namedview871"
     showgrid="false"
     inkscape:zoom="2.0257161"
     inkscape:cx="193.16629"
     inkscape:cy="176.14047"
     inkscape:window-x="1920"
     inkscape:window-y="22"
     inkscape:window-maximized="0"
     inkscape:current-layer="g877" /><g
     id="g877"
     inkscape:groupmode="layer"
     inkscape:label="slides"
     transform="matrix(1.3333333,0,0,-1.3333333,-39.857972,352.9065)"><g
       id="g887"
       transform="translate(67.015,153.701)"
       mask="none"
       clip-path="none"><g
         id="g889"><g
           id="g891"><path
             d="M 37.12152,0 C 37.12152,20.50189 20.50189,37.12152 0,37.12152 -20.50189,37.12152 -37.12152,20.50189 -37.12152,0 c 0,-20.50189 16.61963,-37.12152 37.12152,-37.12152 20.50189,0 37.12152,16.61963 37.12152,37.12152 z"
             style="fill:#483d8b;fill-opacity:1;fill-rule:nonzero;stroke:none"
             id="path893" /></g><g
           id="g895"
           transform="translate(-26.929,4.882)"><g
             id="g897"><g
               id="g899"
               transform="translate(-40.086,-158.583)"><g
                 aria-label="Genetic"
                 transform="matrix(1,0,0,-0.98039216,44.739,158.583)"
                 id="text903"
                 style="font-variant:normal;font-weight:normal;font-size:14.6331px;font-family:LMSans12;-inkscape-font-specification:LMSans12-Regular;writing-mode:lr-tb;fill:#ffffff;fill-opacity:1;fill-rule:nonzero;stroke:none"><path
                   d="M 8.7505935,-0.55605778 V -4.3899299 H 5.6776426 v 0.8926191 h 1.9315692 v 2.4144614 c -0.6145902,0.20486343 -1.2730797,0.30729512 -1.9315692,0.30729512 -0.9511514,0 -1.8145043,-0.51215852 -2.4144614,-1.25844652 -0.6731226,-0.8633529 -0.9950508,-1.9462023 -0.9950508,-3.0436847 0,-1.0974825 0.3219282,-2.194965 0.9950508,-3.0583179 0.5999571,-0.746288 1.46331,-1.2584465 2.4144614,-1.2584465 0.4975254,0 0.9804177,0.058532 1.4486769,0.2341296 0.4828923,0.1609641 0.9072522,0.438993 1.2877127,0.7609212 L 8.6335287,-9.5993133 C 8.1799027,-9.848076 7.6970104,-10.038306 7.199485,-10.170004 c -0.4975254,-0.117065 -1.0096839,-0.160964 -1.5218424,-0.160964 -1.2730796,0 -2.4729938,0.5853237 -3.3363467,1.5364752 -0.9072521,1.0243169 -1.37551133,2.355929 -1.37551133,3.7168073 0,1.3608782 0.46825923,2.6924903 1.37551133,3.7021741 0.8633529,0.95115151 2.0632671,1.5364755 3.3363467,1.5364755 1.0682163,0 2.1217995,-0.2487627 3.0729509,-0.71702188 z"
                   id="path2091" /><path
                   d="m 15.609143,-3.2046488 c 0,-0.4975254 -0.01463,-1.5950079 -0.585324,-2.4729938 -0.599957,-0.9072522 -1.492576,-1.0682163 -2.019368,-1.0682163 -1.624274,0 -2.941253,1.5511086 -2.941253,3.4387784 0,1.9315691 1.404778,3.4680446 3.16075,3.4680446 0.921885,0 1.755972,-0.35119439 2.326663,-0.76092118 l -0.0878,-0.95115152 c -0.921885,0.76092122 -1.88767,0.81945362 -2.224231,0.81945362 -1.170648,0 -2.107167,-1.03895002 -2.151066,-2.47299382 z m -0.834087,-0.8048205 h -3.614375 c 0.234129,-1.1121155 1.009684,-1.8437705 1.84377,-1.8437705 0.760921,0 1.580375,0.4975254 1.770605,1.8437705 z"
                   id="path2093" /><path
                   d="m 22.284774,0 v -4.3606637 c 0,-0.9657845 -0.219497,-2.2973966 -2.004735,-2.2973966 -1.316979,0 -2.034001,0.9950508 -2.121799,1.1121156 V -6.5848948 H 17.104656 V 0 h 1.141382 v -3.5851094 c 0,-0.9657846 0.365828,-2.1803318 1.477943,-2.1803318 1.404778,0 1.419411,1.03895 1.419411,1.5072092 V 0 Z"
                   id="path2095" /><path
                   d="m 29.327697,-3.2046488 c 0,-0.4975254 -0.01463,-1.5950079 -0.585324,-2.4729938 -0.599957,-0.9072522 -1.492576,-1.0682163 -2.019367,-1.0682163 -1.624274,0 -2.941253,1.5511086 -2.941253,3.4387784 0,1.9315691 1.404777,3.4680446 3.160749,3.4680446 0.921885,0 1.755972,-0.35119439 2.326663,-0.76092118 l -0.0878,-0.95115152 c -0.921885,0.76092122 -1.887669,0.81945362 -2.224231,0.81945362 -1.170648,0 -2.107166,-1.03895002 -2.151065,-2.47299382 z m -0.834086,-0.8048205 h -3.614376 c 0.23413,-1.1121155 1.009684,-1.8437705 1.843771,-1.8437705 0.760921,0 1.580374,0.4975254 1.770605,1.8437705 z"
                   id="path2097" /><path
                   d="m 34.496119,-0.39509369 -0.23413,-0.86335291 c -0.38046,0.30729513 -0.848719,0.48289232 -1.316979,0.48289232 -0.541424,0 -0.746288,-0.43899302 -0.746288,-1.21454722 v -3.6582749 h 2.063267 v -0.8487198 h -2.063267 v -1.8584036 h -1.009684 v 1.8584036 h -1.273079 v 0.8487198 h 1.22918 v 3.9070376 c 0,0.87798593 0.204864,1.9023029 1.214547,1.9023029 1.024317,0 1.770605,-0.36582749 2.136433,-0.55605779 z"
                   id="path2099" /><path
                   d="M 37.094966,0 V -6.4970962 H 35.997484 V 0 Z m 0.117065,-8.2823343 v -1.3023459 h -1.302346 v 1.3023459 z"
                   id="path2101" /><path
                   d="m 44.254945,-0.58532398 -0.0878,-0.98041772 c -0.746288,0.58532403 -1.536476,0.79018742 -2.282764,0.79018742 -1.214547,0 -2.034001,-1.05358312 -2.034001,-2.48762692 0,-1.1413818 0.541425,-2.5461593 2.092534,-2.5461593 0.760921,0 1.258446,0.1170648 2.063267,0.6438564 l 0.175597,-0.9511515 C 43.318425,-6.614161 42.8209,-6.7458589 41.928281,-6.7458589 c -2.034001,0 -3.219282,1.7706051 -3.219282,3.4973108 0,1.8145043 1.331612,3.4095122 3.160749,3.4095122 0.790187,0 1.595008,-0.2048634 2.385195,-0.74628808 z"
                   id="path2103" /></g><g
                 aria-label="diversity"
                 transform="matrix(1,0,0,-0.98039216,42.82,141.646)"
                 id="text907"
                 style="font-variant:normal;font-weight:normal;font-size:14.6331px;font-family:LMSans12;-inkscape-font-specification:LMSans12-Regular;writing-mode:lr-tb;fill:#ffffff;fill-opacity:1;fill-rule:nonzero;stroke:none"><path
                   d="M 6.3507652,0 V -10.155371 H 5.2532827 v 4.3021312 C 4.4777285,-6.4970962 3.6582749,-6.6580603 3.1168502,-6.6580603 c -1.4486769,0 -2.59005862,1.5218424 -2.59005862,3.4095122 0,1.916936 1.12674862,3.4095122 2.51689312,3.4095122 0.4828923,0 1.3462452,-0.1316979 2.1656987,-0.92188528 V 0 Z M 5.2093834,-2.0340008 c 0,0.2048634 -0.014633,0.4682591 -0.4828922,0.892619 -0.3365613,0.29266203 -0.7023888,0.40972682 -1.0828494,0.40972682 -0.9072522,0 -1.9754685,-0.68775572 -1.9754685,-2.50226002 0,-1.9315691 1.2584466,-2.5315262 2.1217995,-2.5315262 0.6584895,0 1.0974825,0.3365613 1.4194106,0.8048205 z"
                   id="path2106" /><path
                   d="M 9.6329818,0 V -6.4970962 H 8.5354994 V 0 Z M 9.7500466,-8.2823343 V -9.5846802 H 8.4477008 v 1.3023459 z"
                   id="path2108" /><path
                   d="m 17.246589,-6.4970962 h -1.097483 l -1.156015,3.0436847 C 14.685796,-2.648591 14.23217,-1.46331 14.115105,-0.77555428 h -0.01463 C 14.012674,-1.3023459 13.632213,-2.3120297 13.485882,-2.7071234 L 12.066471,-6.4970962 H 10.92509 L 13.441983,0 h 1.287713 z"
                   id="path2110" /><path
                   d="m 23.332506,-3.2046488 c 0,-0.4975254 -0.01463,-1.5950079 -0.585324,-2.4729938 -0.599957,-0.9072522 -1.492576,-1.0682163 -2.019368,-1.0682163 -1.624274,0 -2.941253,1.5511086 -2.941253,3.4387784 0,1.9315691 1.404778,3.4680446 3.16075,3.4680446 0.921885,0 1.755972,-0.35119439 2.326662,-0.76092118 l -0.0878,-0.95115152 c -0.921885,0.76092122 -1.88767,0.81945362 -2.224231,0.81945362 -1.170648,0 -2.107167,-1.03895002 -2.151066,-2.47299382 z m -0.834087,-0.8048205 h -3.614375 c 0.234129,-1.1121155 1.009683,-1.8437705 1.84377,-1.8437705 0.760921,0 1.580375,0.4975254 1.770605,1.8437705 z"
                   id="path2112" /><path
                   d="m 28.427762,-5.6776426 v -0.9804177 c -1.302346,0.014633 -2.107166,0.731655 -2.560793,1.4047776 V -6.5848948 H 24.842653 V 0 h 1.097482 v -3.1314833 c 0,-1.46331 1.053583,-2.5168931 2.487627,-2.5461593 z"
                   id="path2114" /><path
                   d="m 33.779095,-1.8730367 c 0,-0.8048205 -0.541425,-1.3023459 -0.570691,-1.3462452 -0.570691,-0.5121585 -0.965785,-0.5999571 -1.69744,-0.731655 -0.80482,-0.1609641 -1.477943,-0.3072951 -1.477943,-1.0243169 0,-0.9072522 1.053583,-0.9072522 1.243814,-0.9072522 0.468259,0 1.243813,0.058532 2.0779,0.5560578 l 0.175597,-0.9511515 c -0.760921,-0.3511944 -1.360878,-0.4682592 -2.107166,-0.4682592 -0.365828,0 -2.429095,0 -2.429095,1.916936 0,0.7170219 0.42436,1.1852811 0.790188,1.46331 0.453626,0.3219282 0.775554,0.3804606 1.580374,0.5414247 0.526792,0.1024317 1.375512,0.2780289 1.375512,1.0535832 0,1.00968382 -1.156015,1.00968382 -1.375512,1.00968382 -1.185281,0 -2.004734,-0.54142472 -2.26813,-0.71702192 l -0.175597,0.99505081 c 0.468259,0.2341296 1.273079,0.64385639 2.45836,0.64385639 0.263396,0 1.068217,0 1.69744,-0.46825919 0.453626,-0.35119439 0.702389,-0.93651841 0.702389,-1.56574161 z"
                   id="path2116" /><path
                   d="M 36.285754,0 V -6.4970962 H 35.188272 V 0 Z m 0.117065,-8.2823343 v -1.3023459 h -1.302346 v 1.3023459 z"
                   id="path2118" /><path
                   d="M 42.231186,-0.39509369 41.997057,-1.2584466 c -0.380461,0.30729513 -0.84872,0.48289232 -1.316979,0.48289232 -0.541425,0 -0.746288,-0.43899302 -0.746288,-1.21454722 v -3.6582749 h 2.063267 V -6.4970962 H 39.93379 v -1.8584036 h -1.009684 v 1.8584036 h -1.27308 v 0.8487198 h 1.229181 v 3.9070376 c 0,0.87798593 0.204863,1.9023029 1.214547,1.9023029 1.024317,0 1.770605,-0.36582749 2.136432,-0.55605779 z"
                   id="path2120" /><path
                   d="m 48.678538,-6.4970962 h -1.097482 c -1.902303,4.6533257 -1.931569,5.3264482 -1.946202,5.66300953 H 45.62022 C 45.532422,-1.8145043 44.361774,-4.5362609 44.303242,-4.6679588 L 43.513054,-6.4970962 H 42.357039 L 45.195861,0 44.669069,1.316979 c -0.380461,0.8487197 -0.629223,0.8487197 -0.834087,0.8487197 -0.234129,0 -0.702388,-0.058532 -1.141381,-0.2341296 l 0.0878,0.9511515 c 0.321928,0.073165 0.731655,0.1170648 1.053583,0.1170648 0.512159,0 1.053584,-0.1755972 1.653541,-1.6681733 z"
                   id="path2122" /></g><g
                 id="g909"
                 transform="translate(40.086,158.583)" /></g></g><g
             id="g911"
             transform="translate(26.929,-4.882)" /></g></g><g
         id="g913"><g
           id="g915"><path
             d="m 110.97888,77.94852 c 0,18.2424 -14.78796,33.03036 -33.03036,33.03036 -18.2424,0 -33.03037,-14.78796 -33.03037,-33.03036 0,-18.2424 14.78797,-33.03037 33.03037,-33.03037 18.2424,0 33.03036,14.78797 33.03036,33.03037 z"
             style="fill:#483d8b;fill-opacity:1;fill-rule:nonzero;stroke:none"
             id="path917" /></g><g
           id="g919"
           transform="translate(51.018,72.966)"><g
             id="g921"><g
               id="g923"
               transform="translate(-118.033,-226.667)"><g
                 aria-label="Drift"
                 transform="matrix(1,0,0,-0.98039216,130.914,226.667)"
                 id="text927"
                 style="font-variant:normal;font-weight:normal;font-size:14.6331px;font-family:LMSans12;-inkscape-font-specification:LMSans12-Regular;writing-mode:lr-tb;fill:#ffffff;fill-opacity:1;fill-rule:nonzero;stroke:none"><path
                   d="m 9.7310112,-4.9898869 c 0,-2.8388214 -1.9754684,-5.1654841 -4.4923616,-5.1654841 H 1.4047776 V 0 h 3.8485051 c 2.487627,0 4.4777285,-2.2242311 4.4777285,-4.9898869 z m -1.2584466,0 c 0,2.4876269 -1.5218423,4.17043332 -3.5704762,4.17043332 H 2.6632241 V -9.3359175 h 2.2388643 c 2.0486339,0 3.5704762,1.770605 3.5704762,4.3460306 z"
                   id="path2125" /><path
                   d="m 15.089669,-5.6776426 v -0.9804177 c -1.302346,0.014633 -2.107166,0.731655 -2.560792,1.4047776 V -6.5848948 H 11.50456 V 0 h 1.097482 v -3.1314833 c 0,-1.46331 1.053583,-2.5168931 2.487627,-2.5461593 z"
                   id="path2127" /><path
                   d="M 17.45585,0 V -6.4970962 H 16.358367 V 0 Z m 0.117064,-8.2823343 v -1.3023459 h -1.302345 v 1.3023459 z"
                   id="path2129" /><path
                   d="m 23.62078,-9.1749534 v -0.9804176 c -0.175597,-0.0439 -0.629223,-0.160964 -1.170648,-0.160964 -1.375511,0 -2.429094,1.0389499 -2.429094,2.5022598 v 1.316979 h -1.08285 v 0.8487198 h 1.08285 V 0 h 1.097482 v -5.6483764 h 1.609641 v -0.8487198 h -1.65354 v -1.7413389 c 0,-1.0828493 0.980418,-1.185281 1.360878,-1.185281 0.292662,0 0.687756,0.029266 1.185281,0.2487627 z"
                   id="path2131" /><path
                   d="m 27.779515,-0.39509369 -0.23413,-0.86335291 c -0.38046,0.30729513 -0.84872,0.48289232 -1.316979,0.48289232 -0.541425,0 -0.746288,-0.43899302 -0.746288,-1.21454722 v -3.6582749 h 2.063267 v -0.8487198 h -2.063267 v -1.8584036 h -1.009684 v 1.8584036 h -1.273079 v 0.8487198 h 1.22918 v 3.9070376 c 0,0.87798593 0.204863,1.9023029 1.214547,1.9023029 1.024317,0 1.770605,-0.36582749 2.136433,-0.55605779 z"
                   id="path2133" /></g><g
                 id="g929"
                 transform="translate(118.033,226.667)" /></g></g><g
             id="g931"
             transform="translate(-51.018,-72.966)" /></g></g><g
         id="g933"><g
           id="g935"><path
             d="m 191.87671,0.47298 c 0,20.13249 -16.32015,36.45263 -36.45265,36.45263 -20.1325,0 -36.45264,-16.32014 -36.45264,-36.45263 0,-20.1325 16.32014,-36.45264 36.45264,-36.45264 20.1325,0 36.45265,16.32014 36.45265,36.45264 z"
             style="fill:#483d8b;fill-opacity:1;fill-rule:nonzero;stroke:none"
             id="path937" /></g><g
           id="g939"
           transform="translate(128.493,3.96)"><g
             id="g941"><g
               id="g943"
               transform="translate(-195.508,-157.661)"><g
                 aria-label="Population"
                 transform="matrix(0.98,0,0,-1,195.508,157.661)"
                 id="text947"
                 style="font-variant:normal;font-weight:normal;font-size:14.3462px;font-family:LMSans12;-inkscape-font-specification:LMSans12-Regular;writing-mode:lr-tb;fill:#ffffff;fill-opacity:1;fill-rule:nonzero;stroke:none"><path
                   d="m 8.3494884,-7.0583304 c 0,-1.5350434 -1.4202738,-2.8979324 -3.4000494,-2.8979324 H 1.3772352 V 0 H 2.654047 v -4.1460518 h 2.3958154 c 1.7789288,0 3.299626,-1.3055042 3.299626,-2.9122786 z m -1.1620422,0 c 0,1.1333498 -0.9038106,2.080199 -2.5536236,2.080199 H 2.6110084 v -4.1747442 h 2.0228142 c 1.578082,0 2.5536236,0.8751182 2.5536236,2.0945452 z"
                   id="path2136" /><path
                   d="m 15.260053,-3.156164 c 0,-1.9223908 -1.43462,-3.4574342 -3.141818,-3.4574342 -1.764583,0 -3.1561641,1.578082 -3.1561641,3.4574342 0,1.8936984 1.4633121,3.3139722 3.1418181,3.3139722 1.721544,0 3.156164,-1.4489662 3.156164,-3.3139722 z m -1.119004,-0.143462 c 0,1.6928516 -0.975542,2.5392774 -2.03716,2.5392774 -0.989888,0 -2.022815,-0.8033872 -2.022815,-2.5392774 0,-1.7358902 1.090312,-2.438854 2.022815,-2.438854 1.004234,0 2.03716,0.7460024 2.03716,2.438854 z"
                   id="path2138" /><path
                   d="m 22.441761,-3.1992026 c 0,-1.721544 -0.903811,-3.3283184 -2.281046,-3.3283184 -0.860772,0 -1.692851,0.3012702 -2.352777,0.860772 v -0.7029638 h -1.075965 v 9.1528756 h 1.119004 v -3.443088 c 0.444732,0.4160398 1.075965,0.8177334 1.936737,0.8177334 1.391581,0 2.654047,-1.4059276 2.654047,-3.3570108 z m -1.119004,0 c 0,1.4776586 -1.01858,2.4818926 -2.094545,2.4818926 -0.559502,0 -0.946849,-0.286924 -1.233773,-0.6742714 -0.143462,-0.215193 -0.143462,-0.2438854 -0.143462,-0.502117 v -2.8835862 c 0.344309,-0.502117 0.903811,-0.8320796 1.520697,-0.8320796 1.090311,0 1.951083,1.0903112 1.951083,2.4101616 z"
                   id="path2140" /><path
                   d="m 29.002278,0 v -6.3697128 h -1.119004 v 4.160398 c 0,1.075965 -0.803387,1.578082 -1.721544,1.578082 -1.01858,0 -1.119004,-0.3730012 -1.119004,-0.9898878 v -4.7485922 h -1.119003 v 4.805977 c 0,1.0329264 0.329962,1.721544 1.520697,1.721544 0.760349,0 1.778929,-0.2295392 2.481893,-0.8464258 V 0 Z"
                   id="path2142" /><path
                   d="M 32.205784,0 V -9.9562628 H 31.129819 V 0 Z"
                   id="path2144" /><path
                   d="m 39.139301,0 v -4.1460518 c 0,-1.4633124 -1.047272,-2.4675464 -2.367123,-2.4675464 -0.932503,0 -1.578082,0.2295392 -2.252353,0.6168866 l 0.08608,0.9468492 c 0.746003,-0.5308094 1.463313,-0.71731 2.166276,-0.71731 0.674272,0 1.24812,0.573848 1.24812,1.6354668 v 0.6168866 c -2.15193,0.028692 -3.973898,0.6312328 -3.973898,1.8936984 0,0.6168866 0.387348,1.7789288 1.635467,1.7789288 0.200847,0 1.54939,-0.0286924 2.381469,-0.6742714 V 0 Z m -1.119003,-1.8936984 c 0,0.2725778 0,0.6312328 -0.487771,0.9038106 -0.41604,0.2582316 -0.961195,0.2725778 -1.119004,0.2725778 -0.688617,0 -1.334196,-0.3299626 -1.334196,-0.932503 0,-1.004234 2.324084,-1.1046574 2.940971,-1.1333498 z"
                   id="path2146" /><path
                   d="m 44.758708,-0.3873474 -0.229539,-0.8464258 c -0.373002,0.3012702 -0.83208,0.4734246 -1.291158,0.4734246 -0.53081,0 -0.731657,-0.430386 -0.731657,-1.1907346 v -3.58655 h 2.022815 v -0.8320796 h -2.022815 v -1.8219674 h -0.989887 v 1.8219674 h -1.24812 v 0.8320796 h 1.205081 v 3.8304354 c 0,0.860772 0.200847,1.865006 1.190735,1.865006 1.004234,0 1.73589,-0.358655 2.094545,-0.5451556 z"
                   id="path2148" /><path
                   d="M 47.306595,0 V -6.3697128 H 46.23063 V 0 Z m 0.11477,-8.1199492 V -9.396761 h -1.276812 v 1.2768118 z"
                   id="path2150" /><path
                   d="m 55.100884,-3.156164 c 0,-1.9223908 -1.43462,-3.4574342 -3.141817,-3.4574342 -1.764583,0 -3.156164,1.578082 -3.156164,3.4574342 0,1.8936984 1.463312,3.3139722 3.141817,3.3139722 1.721544,0 3.156164,-1.4489662 3.156164,-3.3139722 z m -1.119003,-0.143462 c 0,1.6928516 -0.975542,2.5392774 -2.037161,2.5392774 -0.989887,0 -2.022814,-0.8033872 -2.022814,-2.5392774 0,-1.7358902 1.090311,-2.438854 2.022814,-2.438854 1.004234,0 2.037161,0.7460024 2.037161,2.438854 z"
                   id="path2152" /><path
                   d="m 61.637013,0 v -4.2751676 c 0,-0.9468492 -0.215193,-2.2523534 -1.96543,-2.2523534 -1.291158,0 -1.994121,0.9755416 -2.080199,1.0903112 V -6.45579 H 56.558458 V 0 h 1.119004 v -3.514819 c 0,-0.9468492 0.358655,-2.1375838 1.448966,-2.1375838 1.377235,0 1.391581,1.0185802 1.391581,1.4776586 V 0 Z"
                   id="path2154" /></g><g
                 aria-label="size"
                 transform="matrix(1,0,0,-0.98039216,211.714,140.725)"
                 id="text951"
                 style="font-variant:normal;font-weight:normal;font-size:14.6331px;font-family:LMSans12;-inkscape-font-specification:LMSans12-Regular;writing-mode:lr-tb;fill:#ffffff;fill-opacity:1;fill-rule:nonzero;stroke:none"><path
                   d="m 5.2679158,-1.8730367 c 0,-0.8048205 -0.5414246,-1.3023459 -0.5706908,-1.3462452 C 4.1265341,-3.7314404 3.7314404,-3.819239 2.9997854,-3.9509369 2.1949649,-4.111901 1.5218424,-4.258232 1.5218424,-4.9752538 c 0,-0.9072522 1.0535831,-0.9072522 1.2438134,-0.9072522 0.4682592,0 1.2438135,0.058532 2.0779002,0.5560578 L 5.0191531,-6.2775997 C 4.258232,-6.6287941 3.6582749,-6.7458589 2.9119868,-6.7458589 c -0.3658275,0 -2.42909451,0 -2.42909451,1.916936 0,0.7170219 0.42435988,1.1852811 0.79018741,1.46331 0.453626,0.3219282 0.7755542,0.3804606 1.5803747,0.5414247 0.5267916,0.1024317 1.3755114,0.2780289 1.3755114,1.0535832 0,1.00968382 -1.1560149,1.00968382 -1.3755114,1.00968382 -1.1852811,0 -2.00473463,-0.54142472 -2.26813042,-0.71702192 l -0.17559719,0.99505081 c 0.46825918,0.2341296 1.27307961,0.64385639 2.45836071,0.64385639 0.2633958,0 1.0682163,0 1.6974396,-0.46825919 0.453626,-0.35119439 0.7023887,-0.93651841 0.7023887,-1.56574161 z"
                   id="path2157" /><path
                   d="M 7.7745748,0 V -6.4970962 H 6.6770923 V 0 Z M 7.8916396,-8.2823343 V -9.5846802 H 6.5892937 v 1.3023459 z"
                   id="path2159" /><path
                   d="m 14.744326,0 v -0.90725217 h -2.151065 c -0.175598,0 -0.351195,0.0146331 -0.526792,0.0146331 H 10.822656 L 14.71506,-5.9264053 V -6.4970962 H 9.4764104 v 0.8633529 h 2.0340006 c 0.175597,0 0.351195,-0.014633 0.526792,-0.014633 h 1.141382 L 9.271547,-0.59995708 V 0 Z"
                   id="path2161" /><path
                   d="m 21.134611,-3.2046488 c 0,-0.4975254 -0.01463,-1.5950079 -0.585324,-2.4729938 -0.599957,-0.9072522 -1.492576,-1.0682163 -2.019368,-1.0682163 -1.624274,0 -2.941253,1.5511086 -2.941253,3.4387784 0,1.9315691 1.404778,3.4680446 3.16075,3.4680446 0.921885,0 1.755972,-0.35119439 2.326662,-0.76092118 l -0.0878,-0.95115152 c -0.921885,0.76092122 -1.88767,0.81945362 -2.224231,0.81945362 -1.170648,0 -2.107167,-1.03895002 -2.151066,-2.47299382 z m -0.834087,-0.8048205 h -3.614375 c 0.234129,-1.1121155 1.009683,-1.8437705 1.84377,-1.8437705 0.760921,0 1.580375,0.4975254 1.770605,1.8437705 z"
                   id="path2163" /></g><g
                 id="g953"
                 transform="translate(195.508,157.661)" /></g></g><g
             id="g955"
             transform="translate(-128.493,-3.96)" /></g></g><g
         id="g957"><g
           id="g959"><path
             d="m 265.92998,-77.00256 c 0,18.24241 -14.78797,33.03038 -33.03037,33.03038 -18.24241,0 -33.03038,-14.78797 -33.03038,-33.03038 0,-18.2424 14.78797,-33.03037 33.03038,-33.03037 18.2424,0 33.03037,14.78797 33.03037,33.03037 z"
             style="fill:#483d8b;fill-opacity:1;fill-rule:nonzero;stroke:none"
             id="path961" /></g><g
           id="g963"
           transform="translate(205.967,-81.983)"><g
             id="g965"><g
               id="g967"
               transform="translate(-272.982,-71.718)"><g
                 aria-label="Mutation"
                 transform="matrix(1,0,0,-0.999001,272.985,71.718)"
                 id="text971"
                 style="font-variant:normal;font-weight:normal;font-size:14.3605px;font-family:LMSans12;-inkscape-font-specification:LMSans12-Regular;writing-mode:lr-tb;fill:#ffffff;fill-opacity:1;fill-rule:nonzero;stroke:none"><path
                   d="M 11.115027,0 V -9.9661872 H 9.4779302 l -1.866865,4.8682096 C 7.1084477,-3.7911721 6.4335042,-2.01047 6.2755386,-1.3355265 h -0.01436 C 6.1893756,-1.637097 6.0170496,-2.1684356 5.8016421,-2.7715766 L 3.5470436,-8.7168237 3.0587866,-9.9661872 H 1.43605 V 0 h 1.1201191 v -8.9035102 h 0.01436 c 0.086163,0.459536 0.660583,2.0248305 1.033956,3.0013446 l 2.125354,5.58623459 h 1.0483166 l 1.9099465,-4.99745409 0.689304,-1.8237836 c 0.143605,-0.4164545 0.5313385,-1.4504105 0.603141,-1.780702 l 0.01436,0.014361 V 0 Z"
                   id="path2166" /><path
                   d="m 18.446101,0 v -6.3760621 h -1.120119 v 4.164545 c 0,1.0770376 -0.804188,1.57965509 -1.72326,1.57965509 -1.019595,0 -1.120119,-0.37337299 -1.120119,-0.99087449 v -4.7533256 h -1.120119 v 4.8107676 c 0,1.03395599 0.330292,1.72326 1.522213,1.72326 0.761107,0 1.780702,-0.229768 2.484367,-0.84726952 V 0 Z"
                   id="path2168" /><path
                   d="M 24.180272,-0.38773351 23.950504,-1.235003 c -0.373373,0.30157048 -0.832909,0.47389648 -1.292445,0.47389648 -0.531338,0 -0.732385,-0.43081498 -0.732385,-1.19192148 v -3.5901251 h 2.02483 v -0.832909 h -2.02483 v -1.8237836 h -0.990875 v 1.8237836 h -1.249363 v 0.832909 h 1.206282 v 3.8342536 c 0,0.86162998 0.201047,1.866865 1.191921,1.866865 1.005235,0 1.737621,-0.3590125 2.096633,-0.54569901 z"
                   id="path2170" /><path
                   d="m 30.363919,0 v -4.1501846 c 0,-1.464771 -1.048316,-2.4700061 -2.369482,-2.4700061 -0.933433,0 -1.579655,0.2297681 -2.254599,0.6175016 l 0.08616,0.947793 c 0.746746,-0.5313385 1.464771,-0.718025 2.168436,-0.718025 0.674943,0 1.249363,0.57442 1.249363,1.637097 v 0.6175015 c -2.154075,0.028721 -3.977858,0.631862 -3.977858,1.8955861 0,0.6175015 0.387733,1.780702 1.637097,1.780702 0.201047,0 1.550934,-0.028721 2.383843,-0.67494351 V 0 Z M 29.2438,-1.895586 c 0,0.2728495 0,0.631862 -0.488257,0.90471148 -0.416454,0.258489 -0.962153,0.2728495 -1.120119,0.2728495 -0.689304,0 -1.335526,-0.33029148 -1.335526,-0.93343248 0,-1.0052351 2.326401,-1.1057586 2.943902,-1.1344796 z"
                   id="path2172" /><path
                   d="M 35.98895,-0.38773351 35.759182,-1.235003 c -0.373373,0.30157048 -0.832909,0.47389648 -1.292445,0.47389648 -0.531339,0 -0.732386,-0.43081498 -0.732386,-1.19192148 v -3.5901251 h 2.024831 v -0.832909 h -2.024831 v -1.8237836 h -0.990874 v 1.8237836 h -1.249364 v 0.832909 h 1.206282 v 3.8342536 c 0,0.86162998 0.201047,1.866865 1.191922,1.866865 1.005235,0 1.73762,-0.3590125 2.096633,-0.54569901 z"
                   id="path2174" /><path
                   d="M 38.53939,0 V -6.3760621 H 37.462353 V 0 Z m 0.114884,-8.1280432 V -9.4061277 H 37.37619 v 1.2780845 z"
                   id="path2176" /><path
                   d="m 46.341463,-3.1593101 c 0,-1.924307 -1.43605,-3.4608806 -3.14495,-3.4608806 -1.766341,0 -3.15931,1.5796551 -3.15931,3.4608806 0,1.8955861 1.464771,3.3172756 3.14495,3.3172756 1.72326,0 3.15931,-1.4504105 3.15931,-3.3172756 z m -1.120119,-0.143605 c 0,1.6945391 -0.976514,2.54180858 -2.039191,2.54180858 -0.990875,0 -2.024831,-0.80418798 -2.024831,-2.54180858 0,-1.7376205 1.091398,-2.441285 2.024831,-2.441285 1.005235,0 2.039191,0.746746 2.039191,2.441285 z"
                   id="path2178" /><path
                   d="m 52.884128,0 v -4.2794291 c 0,-0.947793 -0.215408,-2.2545986 -1.967389,-2.2545986 -1.292445,0 -1.996109,0.9765141 -2.082272,1.0913981 V -6.4622252 H 47.800511 V 0 h 1.120119 v -3.5183226 c 0,-0.947793 0.359012,-2.1397145 1.45041,-2.1397145 1.378608,0 1.392969,1.0195955 1.392969,1.4791315 V 0 Z"
                   id="path2180" /></g><g
                 id="g973"
                 transform="translate(272.982,71.718)" /></g></g><g
             id="g975"
             transform="translate(-205.967,81.983)" /></g></g><g
         id="g977"><g
           id="g979"><path
             d="m 33.03036,-110.23576 c 0,18.2424 -14.78796,33.03036 -33.03036,33.03036 -18.2424,0 -33.03036,-14.78796 -33.03036,-33.03036 0,-18.24242 14.78796,-33.03038 33.03036,-33.03038 18.2424,0 33.03036,14.78796 33.03036,33.03038 z"
             style="fill:#483d8b;fill-opacity:1;fill-rule:nonzero;stroke:none"
             id="path981" /></g><g
           id="g983"
           transform="translate(-26.929,-115.216)"><g
             id="g985"><g
               id="g987"
               transform="translate(-40.086,-38.485)"><g
                 aria-label="Selection"
                 transform="matrix(1,0,0,-0.98039216,40.268,38.485)"
                 id="text991"
                 style="font-variant:normal;font-weight:normal;font-size:14.6331px;font-family:LMSans12;-inkscape-font-specification:LMSans12-Regular;writing-mode:lr-tb;fill:#ffffff;fill-opacity:1;fill-rule:nonzero;stroke:none"><path
                   d="m 7.3019167,-2.7656558 c 0,-0.9511515 -0.4536261,-1.6535403 -0.7755543,-2.0047347 C 5.8386067,-5.5020454 5.3557144,-5.6337433 4.0094693,-5.9703046 3.1607495,-6.175168 2.9266199,-6.2337004 2.4876269,-6.614161 2.3851952,-6.7019596 1.9754684,-7.1263195 1.9754684,-7.7701759 c 0,-0.8633528 0.7901874,-1.7413388 2.1364326,-1.7413388 1.2291803,0 1.9315691,0.4828923 2.4729938,0.9365184 l 0.2194965,-1.170648 c -0.8048205,-0.4828927 -1.609641,-0.7316547 -2.6778572,-0.7316547 -2.0340009,0 -3.30708052,1.4340435 -3.30708052,2.8827203 0,0.6292233 0.20486342,1.2438135 0.79018742,1.8584037 0.6145901,0.6584895 1.2584465,0.8340866 2.1217994,1.03895 1.2438134,0.3072951 1.3901444,0.3511944 1.7998712,0.7170219 0.292662,0.2487627 0.6145902,0.731655 0.6145902,1.3608783 0,0.9657846 -0.8048205,1.93156912 -2.1364325,1.93156912 -0.5999571,0 -1.9169361,-0.14633099 -3.14611643,-1.18528102 L 0.64385638,-0.68775568 C 1.9315691,0.1170648 3.1022171,0.32192819 4.0241024,0.32192819 c 1.9315691,0 3.2778143,-1.47794309 3.2778143,-3.08758399 z"
                   id="path2183" /><path
                   d="m 14.018523,-3.2046488 c 0,-0.4975254 -0.01463,-1.5950079 -0.585324,-2.4729938 -0.599957,-0.9072522 -1.492576,-1.0682163 -2.019368,-1.0682163 -1.6242739,0 -2.9412529,1.5511086 -2.9412529,3.4387784 0,1.9315691 1.4047776,3.4680446 3.1607499,3.4680446 0.921885,0 1.755972,-0.35119439 2.326662,-0.76092118 l -0.0878,-0.95115152 c -0.921885,0.76092122 -1.88767,0.81945362 -2.224231,0.81945362 -1.170648,0 -2.1071666,-1.03895002 -2.1510659,-2.47299382 z M 13.184436,-4.0094693 H 9.5700606 c 0.2341296,-1.1121155 1.0096834,-1.8437705 1.8437704,-1.8437705 0.760921,0 1.580375,0.4975254 1.770605,1.8437705 z"
                   id="path2185" /><path
                   d="M 16.611519,0 V -10.155371 H 15.514036 V 0 Z"
                   id="path2187" /><path
                   d="m 23.756866,-3.2046488 c 0,-0.4975254 -0.01463,-1.5950079 -0.585324,-2.4729938 -0.599957,-0.9072522 -1.492576,-1.0682163 -2.019368,-1.0682163 -1.624274,0 -2.941253,1.5511086 -2.941253,3.4387784 0,1.9315691 1.404778,3.4680446 3.16075,3.4680446 0.921885,0 1.755972,-0.35119439 2.326663,-0.76092118 l -0.0878,-0.95115152 c -0.921885,0.76092122 -1.88767,0.81945362 -2.224231,0.81945362 -1.170648,0 -2.107166,-1.03895002 -2.151066,-2.47299382 z m -0.834087,-0.8048205 h -3.614375 c 0.234129,-1.1121155 1.009684,-1.8437705 1.84377,-1.8437705 0.760922,0 1.580375,0.4975254 1.770605,1.8437705 z"
                   id="path2189" /><path
                   d="m 30.139835,-0.58532398 -0.0878,-0.98041772 c -0.746288,0.58532403 -1.536475,0.79018742 -2.282763,0.79018742 -1.214547,0 -2.034001,-1.05358312 -2.034001,-2.48762692 0,-1.1413818 0.541425,-2.5461593 2.092533,-2.5461593 0.760921,0 1.258447,0.1170648 2.063267,0.6438564 l 0.175597,-0.9511515 c -0.863352,-0.4975254 -1.360878,-0.6292233 -2.253497,-0.6292233 -2.034001,0 -3.219282,1.7706051 -3.219282,3.4973108 0,1.8145043 1.331612,3.4095122 3.16075,3.4095122 0.790187,0 1.595008,-0.2048634 2.385195,-0.74628808 z"
                   id="path2191" /><path
                   d="M 35.293623,-0.39509369 35.059494,-1.2584466 c -0.380461,0.30729513 -0.84872,0.48289232 -1.316979,0.48289232 -0.541425,0 -0.746288,-0.43899302 -0.746288,-1.21454722 v -3.6582749 h 2.063267 v -0.8487198 h -2.063267 v -1.8584036 h -1.009684 v 1.8584036 h -1.27308 v 0.8487198 h 1.229181 v 3.9070376 c 0,0.87798593 0.204863,1.9023029 1.214547,1.9023029 1.024317,0 1.770605,-0.36582749 2.136432,-0.55605779 z"
                   id="path2193" /><path
                   d="M 37.89247,0 V -6.4970962 H 36.794988 V 0 Z m 0.117065,-8.2823343 v -1.3023459 h -1.302346 v 1.3023459 z"
                   id="path2195" /><path
                   d="m 45.842641,-3.2192819 c 0,-1.9608353 -1.46331,-3.526577 -3.204649,-3.526577 -1.799871,0 -3.219282,1.609641 -3.219282,3.526577 0,1.9315691 1.492576,3.380246 3.204649,3.380246 1.755972,0 3.219282,-1.4779431 3.219282,-3.380246 z m -1.141382,-0.146331 c 0,1.7267057 -0.995051,2.59005862 -2.0779,2.59005862 -1.009684,0 -2.063267,-0.81945362 -2.063267,-2.59005862 0,-1.770605 1.112116,-2.4876269 2.063267,-2.4876269 1.024317,0 2.0779,0.7609212 2.0779,2.4876269 z"
                   id="path2197" /><path
                   d="m 52.509491,0 v -4.3606637 c 0,-0.9657845 -0.219497,-2.2973966 -2.004735,-2.2973966 -1.316979,0 -2.034001,0.9950508 -2.121799,1.1121156 V -6.5848948 H 47.329374 V 0 h 1.141381 v -3.5851094 c 0,-0.9657846 0.365828,-2.1803318 1.477943,-2.1803318 1.404778,0 1.419411,1.03895 1.419411,1.5072092 V 0 Z"
                   id="path2199" /></g><g
                 id="g993"
                 transform="translate(40.086,38.485)" /></g></g><g
             id="g995"
             transform="translate(26.929,115.216)" /></g></g><g
         id="g997"><path
           d="m 0,-77.00615 v 37.09511"
           style="fill:none;stroke:#808080;stroke-width:0.79701;stroke-linecap:butt;stroke-linejoin:miter;stroke-miterlimit:10;stroke-dasharray:none;stroke-opacity:1"
           id="path999" /><g
           id="g1001"
           transform="rotate(90,19.95552,-19.95552)"><g
             id="g1003"><path
               d="M 2.59026,0 -1.55415,2.0722 0,0 -1.55415,-2.0722"
               style="fill:#808080;fill-opacity:1;fill-rule:nonzero;stroke:none"
               id="path1005" /></g></g><g
           id="g1007"><g
             id="g1009"><path
               d="m 10.91794,-57.16345 c 0,6.02987 -4.88806,10.91794 -10.91794,10.91794 -6.02988,0 -10.91794,-4.88807 -10.91794,-10.91794 0,-6.02989 4.88806,-10.91795 10.91794,-10.91795 6.02988,0 10.91794,4.88806 10.91794,10.91795 z"
               style="fill:#cd5c5c;fill-opacity:1;fill-rule:nonzero;stroke:none"
               id="path1011" /></g><g
             id="g1013"
             transform="translate(-3.294,-59.155)"><g
               id="g1015"><g
                 id="g1017"
                 transform="translate(-63.721,-94.546)"><g
                   aria-label="−"
                   transform="matrix(1,0,0,-1,63.721,94.546)"
                   id="text1021"
                   style="font-variant:normal;font-weight:normal;font-size:7.9701px;font-family:LMMathSymbols8;-inkscape-font-specification:LMMathSymbols8-Regular;writing-mode:lr-tb;fill:#ffffff;fill-opacity:1;fill-rule:nonzero;stroke:none"><path
                     d="M 0.84448813,-2.8292298 H 5.8335839 v 0.6615806 H 0.84448813 Z"
                     id="path2202" /></g><g
                   id="g1023"
                   transform="translate(63.721,94.546)" /></g></g><g
               id="g1025"
               transform="translate(3.294,59.155)" /></g></g></g><g
         id="g1027"><path
           d="M 54.45161,54.45161 28.22139,28.22139"
           style="fill:none;stroke:#808080;stroke-width:0.79701;stroke-linecap:butt;stroke-linejoin:miter;stroke-miterlimit:10;stroke-dasharray:none;stroke-opacity:1"
           id="path1029" /><g
           id="g1031"
           transform="matrix(-0.7071,-0.7071,0.7071,-0.7071,28.22139,28.22139)"><g
             id="g1033"><path
               d="M 2.59026,0 -1.55415,2.0722 0,0 -1.55415,-2.0722"
               style="fill:#808080;fill-opacity:1;fill-rule:nonzero;stroke:none"
               id="path1035" /></g></g><g
           id="g1037"><g
             id="g1039"><path
               d="m 51.33864,40.4207 c 0,6.02988 -4.88806,10.91794 -10.91794,10.91794 -6.02988,0 -10.91794,-4.88806 -10.91794,-10.91794 0,-6.02988 4.88806,-10.91794 10.91794,-10.91794 6.02988,0 10.91794,4.88806 10.91794,10.91794 z"
               style="fill:#cd5c5c;fill-opacity:1;fill-rule:nonzero;stroke:none"
               id="path1041" /></g><g
             id="g1043"
             transform="translate(37.127,38.428)"><g
               id="g1045"><g
                 id="g1047"
                 transform="translate(-104.142,-192.129)"><g
                   aria-label="−"
                   transform="matrix(1,0,0,-1,104.142,192.129)"
                   id="text1051"
                   style="font-variant:normal;font-weight:normal;font-size:7.9701px;font-family:LMMathSymbols8;-inkscape-font-specification:LMMathSymbols8-Regular;writing-mode:lr-tb;fill:#ffffff;fill-opacity:1;fill-rule:nonzero;stroke:none"><path
                     d="M 0.84448813,-2.8292298 H 5.8335839 v 0.6615806 H 0.84448813 Z"
                     id="path2205" /></g><g
                   id="g1053"
                   transform="translate(104.142,192.129)" /></g></g><g
               id="g1055"
               transform="translate(-37.127,-38.428)" /></g></g></g><g
         id="g1057"><path
           d="M 129.50725,26.38979 103.27702,52.62001"
           style="fill:none;stroke:#808080;stroke-width:0.79701;stroke-linecap:butt;stroke-linejoin:miter;stroke-miterlimit:10;stroke-dasharray:none;stroke-opacity:1"
           id="path1059" /><g
           id="g1061"
           transform="matrix(-0.7071,0.7071,-0.7071,-0.7071,103.27702,52.62001)"><g
             id="g1063"><path
               d="M 2.59026,0 -1.55415,2.0722 0,0 -1.55415,-2.0722"
               style="fill:#808080;fill-opacity:1;fill-rule:nonzero;stroke:none"
               id="path1065" /></g></g><g
           id="g1067"><g
             id="g1069"><path
               d="m 126.39427,40.4207 c 0,6.02988 -4.88806,10.91794 -10.91794,10.91794 -6.02987,0 -10.91793,-4.88806 -10.91793,-10.91794 0,-6.02988 4.88806,-10.91794 10.91793,-10.91794 6.02988,0 10.91794,4.88806 10.91794,10.91794 z"
               style="fill:#cd5c5c;fill-opacity:1;fill-rule:nonzero;stroke:none"
               id="path1071" /></g><g
             id="g1073"
             transform="translate(112.181,38.428)"><g
               id="g1075"><g
                 id="g1077"
                 transform="translate(-179.196,-192.129)"><g
                   aria-label="−"
                   transform="matrix(1,0,0,-1,179.196,192.129)"
                   id="text1081"
                   style="font-variant:normal;font-weight:normal;font-size:7.9701px;font-family:LMMathSymbols8;-inkscape-font-specification:LMMathSymbols8-Regular;writing-mode:lr-tb;fill:#ffffff;fill-opacity:1;fill-rule:nonzero;stroke:none"><path
                     d="M 0.84448813,-2.8292298 H 5.8335839 v 0.6615806 H 0.84448813 Z"
                     id="path2208" /></g><g
                   id="g1083"
                   transform="translate(179.196,192.129)" /></g></g><g
               id="g1085"
               transform="translate(-112.181,-38.428)" /></g></g></g><g
         id="g1087"><path
           d="M 118.7733,0.3617 39.9098,0.12117"
           style="fill:none;stroke:#808080;stroke-width:0.79701;stroke-linecap:butt;stroke-linejoin:miter;stroke-miterlimit:10;stroke-dasharray:none;stroke-opacity:1"
           id="path1089" /><g
           id="g1091"
           transform="matrix(-0.99997,-0.00304,0.00304,-0.99997,39.90982,0.12117)"><g
             id="g1093"><path
               d="M 2.59026,0 -1.55415,2.0722 0,0 -1.55415,-2.0722"
               style="fill:#808080;fill-opacity:1;fill-rule:nonzero;stroke:none"
               id="path1095" /></g></g><g
           id="g1097"><g
             id="g1099"><path
               d="m 88.96416,0.2375 c 0,6.02976 -4.88796,10.9177 -10.9177,10.9177 -6.02974,0 -10.91769,-4.88794 -10.91769,-10.9177 0,-6.02972 4.88795,-10.91768 10.91769,-10.91768 6.02974,0 10.9177,4.88796 10.9177,10.91768 z"
               style="fill:#228b22;fill-opacity:1;fill-rule:nonzero;stroke:none"
               id="path1101" /></g><g
             id="g1103"
             transform="translate(74.752,-1.755)"><g
               id="g1105"><g
                 id="g1107"
                 transform="translate(-141.767,-151.946)"><g
                   aria-label="+"
                   transform="matrix(1,0,0,-1,141.767,151.946)"
                   id="text1111"
                   style="font-variant:normal;font-weight:normal;font-size:7.9701px;font-family:LMSans8;-inkscape-font-specification:LMSans8-Regular;writing-mode:lr-tb;fill:#ffffff;fill-opacity:1;fill-rule:nonzero;stroke:none"><path
                     d="m 5.746442,-1.992525 c 0,-0.159402 -0.1514319,-0.159402 -0.2630133,-0.159402 H 3.2597709 v -2.231628 c 0,-0.1115814 0,-0.2630133 -0.159402,-0.2630133 -0.159402,0 -0.159402,0.1514319 -0.159402,0.2630133 v 2.231628 H 0.70933889 c -0.1115814,0 -0.26301329,0 -0.26301329,0.159402 0,0.159402 0.15143189,0.159402 0.26301329,0.159402 H 2.9409669 v 2.231628 c 0,0.1115814 0,0.26301329 0.159402,0.26301329 0.159402,0 0.159402,-0.15143189 0.159402,-0.26301329 v -2.231628 h 2.2236578 c 0.1115814,0 0.2630133,0 0.2630133,-0.159402 z"
                     id="path2211" /></g><g
                   id="g1113"
                   transform="translate(141.767,151.946)" /></g></g><g
               id="g1115"
               transform="translate(-74.752,1.755)" /></g></g></g><g
         id="g1117"><path
           d="m 32.89546,-105.54207 164.54447,23.47994"
           style="fill:none;stroke:#808080;stroke-width:0.79701;stroke-linecap:butt;stroke-linejoin:miter;stroke-miterlimit:10;stroke-dasharray:none;stroke-opacity:1"
           id="path1119" /><g
           id="g1121"
           transform="matrix(0.98994,0.14125,-0.14125,0.98994,197.43991,-82.06215)"><g
             id="g1123"><path
               d="M 2.59026,0 -1.55415,2.0722 0,0 -1.55415,-2.0722"
               style="fill:#808080;fill-opacity:1;fill-rule:nonzero;stroke:none"
               id="path1125" /></g></g><g
           id="g1127"><g
             id="g1129"><path
               d="m 127.36774,-93.61917 c 0,6.02987 -4.88806,10.91794 -10.91794,10.91794 -6.0299,0 -10.91795,-4.88807 -10.91795,-10.91794 0,-6.02988 4.88805,-10.91794 10.91795,-10.91794 6.02988,0 10.91794,4.88806 10.91794,10.91794 z"
               style="fill:#cd5c5c;fill-opacity:1;fill-rule:nonzero;stroke:none"
               id="path1131" /></g><g
             id="g1133"
             transform="translate(113.155,-95.611)"><g
               id="g1135"><g
                 id="g1137"
                 transform="translate(-180.17,-58.09)"><g
                   aria-label="−"
                   transform="matrix(1,0,0,-1,180.17,58.09)"
                   id="text1141"
                   style="font-variant:normal;font-weight:normal;font-size:7.9701px;font-family:LMMathSymbols8;-inkscape-font-specification:LMMathSymbols8-Regular;writing-mode:lr-tb;fill:#ffffff;fill-opacity:1;fill-rule:nonzero;stroke:none"><path
                     d="M 0.84448813,-2.8292298 H 5.8335839 v 0.6615806 H 0.84448813 Z"
                     id="path2214" /></g><g
                   id="g1143"
                   transform="translate(180.17,58.09)" /></g></g><g
               id="g1145"
               transform="translate(-113.155,95.611)" /></g></g></g><g
         id="g1147"><path
           d="M 181.34088,-25.44383 207.5711,-51.67406"
           style="fill:none;stroke:#808080;stroke-width:0.79701;stroke-linecap:butt;stroke-linejoin:miter;stroke-miterlimit:10;stroke-dasharray:none;stroke-opacity:1"
           id="path1149" /><g
           id="g1151"
           transform="matrix(0.7071,-0.7071,0.7071,0.7071,207.5711,-51.67406)"><g
             id="g1153"><path
               d="M 2.59026,0 -1.55415,2.0722 0,0 -1.55415,-2.0722"
               style="fill:#808080;fill-opacity:1;fill-rule:nonzero;stroke:none"
               id="path1155" /></g></g><g
           id="g1157"><g
             id="g1159"><path
               d="m 206.28949,-39.47475 c 0,6.02976 -4.88795,10.9177 -10.91769,10.9177 -6.02976,0 -10.9177,-4.88794 -10.9177,-10.9177 0,-6.02974 4.88794,-10.91769 10.9177,-10.91769 6.02974,0 10.91769,4.88795 10.91769,10.91769 z"
               style="fill:#228b22;fill-opacity:1;fill-rule:nonzero;stroke:none"
               id="path1161" /></g><g
             id="g1163"
             transform="translate(192.076,-41.467)"><g
               id="g1165"><g
                 id="g1167"
                 transform="translate(-259.091,-112.234)"><g
                   aria-label="+"
                   transform="matrix(1,0,0,-1,259.091,112.234)"
                   id="text1171"
                   style="font-variant:normal;font-weight:normal;font-size:7.9701px;font-family:LMSans8;-inkscape-font-specification:LMSans8-Regular;writing-mode:lr-tb;fill:#ffffff;fill-opacity:1;fill-rule:nonzero;stroke:none"><path
                     d="m 5.746442,-1.992525 c 0,-0.159402 -0.1514319,-0.159402 -0.2630133,-0.159402 H 3.2597709 v -2.231628 c 0,-0.1115814 0,-0.2630133 -0.159402,-0.2630133 -0.159402,0 -0.159402,0.1514319 -0.159402,0.2630133 v 2.231628 H 0.70933889 c -0.1115814,0 -0.26301329,0 -0.26301329,0.159402 0,0.159402 0.15143189,0.159402 0.26301329,0.159402 H 2.9409669 v 2.231628 c 0,0.1115814 0,0.26301329 0.159402,0.26301329 0.159402,0 0.159402,-0.15143189 0.159402,-0.26301329 v -2.231628 h 2.2236578 c 0.1115814,0 0.2630133,0 0.2630133,-0.159402 z"
                     id="path2217" /></g><g
                   id="g1173"
                   transform="translate(259.091,112.234)" /></g></g><g
               id="g1175"
               transform="translate(-192.076,41.467)" /></g></g></g><g
         id="g1177"><path
           d="M 201.35083,-66.57166 37.89221,-12.52821"
           style="fill:none;stroke:#808080;stroke-width:0.79701;stroke-linecap:butt;stroke-linejoin:miter;stroke-miterlimit:10;stroke-dasharray:none;stroke-opacity:1"
           id="path1179" /><g
           id="g1181"
           transform="matrix(-0.94942,0.3139,-0.3139,-0.94942,37.89221,-12.52821)"><g
             id="g1183"><path
               d="M 2.59026,0 -1.55415,2.0722 0,0 -1.55415,-2.0722"
               style="fill:#808080;fill-opacity:1;fill-rule:nonzero;stroke:none"
               id="path1185" /></g></g><g
           id="g1187"><g
             id="g1189"><path
               d="m 129.3096,-39.1434 c 0,6.02974 -4.88795,10.91769 -10.9177,10.91769 -6.02973,0 -10.91769,-4.88795 -10.91769,-10.91769 0,-6.02974 4.88796,-10.9177 10.91769,-10.9177 6.02975,0 10.9177,4.88796 10.9177,10.9177 z"
               style="fill:#228b22;fill-opacity:1;fill-rule:nonzero;stroke:none"
               id="path1191" /></g><g
             id="g1193"
             transform="translate(115.097,-41.136)"><g
               id="g1195"><g
                 id="g1197"
                 transform="translate(-182.112,-112.565)"><g
                   aria-label="+"
                   transform="matrix(1,0,0,-1,182.112,112.565)"
                   id="text1201"
                   style="font-variant:normal;font-weight:normal;font-size:7.9701px;font-family:LMSans8;-inkscape-font-specification:LMSans8-Regular;writing-mode:lr-tb;fill:#ffffff;fill-opacity:1;fill-rule:nonzero;stroke:none"><path
                     d="m 5.746442,-1.992525 c 0,-0.159402 -0.1514319,-0.159402 -0.2630133,-0.159402 H 3.2597709 v -2.231628 c 0,-0.1115814 0,-0.2630133 -0.159402,-0.2630133 -0.159402,0 -0.159402,0.1514319 -0.159402,0.2630133 v 2.231628 H 0.70933889 c -0.1115814,0 -0.26301329,0 -0.26301329,0.159402 0,0.159402 0.15143189,0.159402 0.26301329,0.159402 H 2.9409669 v 2.231628 c 0,0.1115814 0,0.26301329 0.159402,0.26301329 0.159402,0 0.159402,-0.15143189 0.159402,-0.26301329 v -2.231628 h 2.2236578 c 0.1115814,0 0.2630133,0 0.2630133,-0.159402 z"
                     id="path2220" /></g><g
                   id="g1203"
                   transform="translate(182.112,112.565)" /></g></g><g
               id="g1205"
               transform="translate(-115.097,41.136)" /></g></g></g></g></g></svg>
